HIERARCHY
ROOT HipCenter
{
    OFFSET 0.0 0.0 -0.0
    CHANNELS 6 Xposition Yposition Zposition Zrotation Xrotation Yrotation
    JOINT Spine
    {
        OFFSET 0.0 31.690603256225586 0.0
        CHANNELS 3 Zrotation Xrotation Yrotation
        JOINT ShoulderCenter
        {
            OFFSET 0.0 23.700000762939453 0.0
            CHANNELS 3 Zrotation Xrotation Yrotation
            JOINT LeftShoulder
            {
                OFFSET 17.891448974609375 0.0 0.0
                CHANNELS 3 Zrotation Xrotation Yrotation
                JOINT LeftElbow
                {
                    OFFSET 26.441312789916992 0.0 0.0
                    CHANNELS 3 Zrotation Xrotation Yrotation
                    JOINT LeftWrist
                    {
                        OFFSET 23.888256072998047 0.0 0.0
                        CHANNELS 3 Zrotation Xrotation Yrotation
                        JOINT LeftHand
                        {
                            OFFSET 7.5937347412109375 0.0 0.0
                            CHANNELS 3 Zrotation Xrotation Yrotation
                            End Site
                            {
                                OFFSET 3.0374937057495117 0.0 0.0
                            }
                        }
                    }
                }
            }
            JOINT RightShoulder
            {
                OFFSET -17.891448974609375 0.0 0.0
                CHANNELS 3 Zrotation Xrotation Yrotation
                JOINT RightElbow
                {
                    OFFSET -26.441312789916992 0.0 0.0
                    CHANNELS 3 Zrotation Xrotation Yrotation
                    JOINT RightWrist
                    {
                        OFFSET -23.888256072998047 0.0 0.0
                        CHANNELS 3 Zrotation Xrotation Yrotation
                        JOINT RightHand
                        {
                            OFFSET -7.5937347412109375 0.0 0.0
                            CHANNELS 3 Zrotation Xrotation Yrotation
                            End Site
                            {
                                OFFSET -3.0374937057495117 0.0 0.0
                            }
                        }
                    }
                }
            }
            End Site
            {
                OFFSET 0.0 9.480001449584961 0.0
            }
        }
    }
    JOINT LeftHip
    {
        OFFSET 7.711267471313477 0.0 0.0
        CHANNELS 3 Zrotation Xrotation Yrotation
        JOINT LeftKnee
        {
            OFFSET 0.0 -27.585697174072266 0.0
            CHANNELS 3 Zrotation Xrotation Yrotation
            JOINT LeftAnkle
            {
                OFFSET 0.0 -37.280555725097656 0.0
                CHANNELS 3 Zrotation Xrotation Yrotation
                JOINT LeftFoot
                {
                    OFFSET 0.0 -12.307085037231445 0.0
                    CHANNELS 3 Zrotation Xrotation Yrotation
                    End Site
                    {
                        OFFSET 0.0 0.0 4.922833442687988
                    }
                }
            }
        }
    }
    JOINT RightHip
    {
        OFFSET -7.711267471313477 0.0 0.0
        CHANNELS 3 Zrotation Xrotation Yrotation
        JOINT RightKnee
        {
            OFFSET 0.0 -27.585697174072266 0.0
            CHANNELS 3 Zrotation Xrotation Yrotation
            JOINT RightAnkle
            {
                OFFSET 0.0 -37.280555725097656 0.0
                CHANNELS 3 Zrotation Xrotation Yrotation
                JOINT RightFoot
                {
                    OFFSET 0.0 -12.307085037231445 0.0
                    CHANNELS 3 Zrotation Xrotation Yrotation
                    End Site
                    {
                        OFFSET 0.0 0.0 4.922833442687988
                    }
                }
            }
        }
    }
}
MOTION
Frames: 5
Frame Time: 0.03333333333333333
0.8954925537109375 -8.488312721252441 -352.8955078125 -1.1457762210715732 17.363282918206327 131.84464991694418 1.627673571236207 -1.3854976080072112 0.30247653935284297 -1.0330746524351695e-07 7.700587581927771e-07 -4.790164612410614 -82.28775236943484 -45.13391656436962 9.561119468298465 -1.5044719227764325e-06 -1.40433970327429e-06 14.955794361331627 2.6311033409037002e-06 3.1089810959200346 124.66441263911534 -6.3611093629270335e-15 -6.3611093629270335e-15 -3.531125038440127e-31 58.054787251586916 -53.461006842293344 -25.643157965103132 -3.0195735524795977e-06 5.8942477795132e-08 -21.380253337423028 4.692510789932819e-06 6.88164260050221 -27.9841791543922 -3.1805546814635168e-15 1.7655625192200634e-31 -6.3611093629270335e-15 5.210874211840645 7.039776428776477 24.484112449249682 -1.836055325072802 -7.970895540716994 1.3449999630079685 49.707644153285614 70.19386786200113 -57.66612348615996 0.0 0.0 4.770832022195277e-15 -19.517937710503226 -0.6032563773747108 -12.726941650586209 25.568026338606277 -11.07785084992393 4.021072021255119 -99.68305869649767 73.71919372232875 79.56816343694425 0.0 0.0 -1.5902773407317584e-15
1.0244810581207275 -8.58480453491211 -352.28961181640625 -0.9942645547193125 16.991201394452087 131.89507569788992 1.6339294583060062 -1.3594591749724265 0.29782879903300397 6.762083120923757e-07 1.97425255359595e-06 -4.967975020207342 -81.31094794577282 -46.99822413617562 9.865288673048065 1.1210709560875968e-06 -1.4653138882071613e-06 14.984030803629135 -2.3649709171151453e-06 -1.9615449676474555 74.32446998826084 0.0 -6.3611093629270335e-15 0.0 57.589084314902124 -53.9431511290577 -26.714408765013513 6.345837810841723e-06 -1.8463717203283455e-06 -21.75783982023517 1.3042980022078163e-06 12.061034634697712 -35.02252696233499 -1.1034765745125397e-32 -3.9756933518293955e-16 -3.1805546814635164e-15 6.442452862741412 6.478595866760283 24.13699839908465 -2.5508169745788494 -7.30994221145286 1.2450983730915814 49.62586541795775 70.4107917835986 -57.71779293270618 1.5902773407317584e-15 -4.4139062980501586e-32 -3.1805546814635168e-15 -17.853527693189978 -0.5365643331089204 -12.572761018450548 24.41521404056734 -12.036165485800437 4.497775851304363 -101.73974353140127 74.1965311813097 81.21930439221433 -3.1805546814635168e-15 -4.4139062980501586e-32 1.5902773407317584e-15
0.9951654076576233 -8.564074516296387 -352.2820129394531 -1.0371365034127538 17.01375542076705 131.96936078427893 1.6113642464921163 -1.368760175710146 0.29974596040045454 1.0907255305612572e-06 -3.5704190989133856e-07 -5.0891776230570445 -81.24752729997462 -47.643790744681304 10.08238746063585 -2.5339182510568306e-06 1.510937817750065e-06 15.146641582519807 2.0694870582769577e-07 -1.029015888070827 73.72089545110764 3.1805546814635168e-15 0.0 0.0 56.70700674583818 -54.62693561558332 -27.32733048444518 1.0289169037020173e-06 1.6288317322884603e-06 -22.292577526266726 1.674432549541402e-06 11.23698083748049 -32.88336553014664 3.180554681463516e-15 -6.361109362927032e-15 1.7655625192200634e-31 6.405509058265966 6.450065296940471 24.1069507675056 -2.5780154303847698 -7.103187506259371 1.1913849771588019 49.2760725066734 70.25226158125669 -57.187587817475055 -3.1805546814635168e-15 0.0 0.0 -18.267455475842993 -0.17192347590549792 -12.578203964547127 24.716938953798888 -12.293399406739354 4.566332621278789 -101.57694835026795 74.29693819049712 81.18343183118522 3.1805546814635168e-15 6.3611093629270335e-15 -3.1805546814635168e-15
0.9936968088150024 -8.620644569396973 -352.17999267578125 -1.01754650445681 17.026667133846793 132.0539468932708 1.566427354567321 -1.3423584613824515 0.2955171557711811 5.908968986437604e-07 1.1249059597521402e-06 -5.350865371151741 98.7071875575188 47.296063884460914 133.94833501335904 -4.784215516671472e-06 -1.3951275688906459e-06 35.703244364199904 -179.99999501472968 -0.3047944048948205 -111.90492459493174 1.5902773407317584e-15 0.0 0.0 62.945570231054646 -54.31292338743096 -0.49440389725257644 5.051355492496681e-06 -4.804868087962099e-07 -47.40535164016859 7.707226262112589e-08 -21.960524384300758 -27.24823177496806 0.0 0.0 0.0 6.615373302721106 6.376066553704736 24.09199760080301 -2.953410656747696 -7.184614674215713 1.1821500156339482 50.354214166844855 70.1909913164239 -58.10298317045545 0.0 0.0 0.0 -16.471329943728897 -2.0140526640430823 -12.619690028020509 22.990795647058285 -10.776958351432478 4.133447834505415 -101.6423064131803 74.51306175161676 80.56471358882621 6.3611093629270335e-15 0.0 0.0
1.0094449520111084 -8.655980110168457 -352.1064147949219 -0.9945829046617134 17.0400047790898 132.08343924390445 1.5360626977488447 -1.3271614859108942 0.29648423886857245 -1.8368587128980454e-07 1.0726075548177982e-06 -5.454105151747254 -80.34213514660509 -50.11335933043755 10.607088838944206 6.78279889051975e-08 -1.571279709923396e-07 16.11204325928979 -2.44734592508721e-06 -2.213177440441887 122.36245965276495 -6.3611093629270335e-15 1.7655625192200634e-31 -3.1805546814635168e-15 56.927871918226494 -55.06043304571508 -26.782959782327328 -1.2031254944178112e-06 1.647855115660877e-06 -22.65111668970575 8.605880098558582e-07 13.903329702840608 -19.91219295248822 1.5448672043175555e-31 -5.565970692561154e-15 3.1805546814635168e-15 6.7733877070685695 6.3245153749905905 24.15664346768836 -3.056374777102165 -7.0205554220227935 1.1857769825500695 6.314022359889488 44.58179343079643 -11.272865539263778 4.770832022195275e-15 -9.931289170612858e-32 -2.3854160110976376e-15 -16.212594024770553 -2.0820568729506332 -12.616142937201381 22.811505964114556 -10.638504640562301 4.137975656187864 -101.37565067867232 74.61613606147559 80.01038326906537 -3.1805546814635164e-15 -1.3241718894150476e-31 4.770832022195274e-15
